# xmcd
#
# Track frame offsets:
#	150
#	21490
#	46312
#	63185
#	92372
#	117725
#	136952
#	157787
#	179307
#	206982
#	228735
#	246637
#	268682
#	287685
#
# Disc length: 4159 seconds
#
# Revision: 19
# Processed by: cddbd v1.5.2PL0 Copyright (c) Steve Scherf et al.
# Submitted via: EasyCDDAExtractor 15.3.0.1
#
DISCID=d0103d0e
DTITLE=George Michael - Ladies and Gentlemen - The Best Of George Michael - CD 2
DYEAR=1998
DGENRE=Pop
TTITLE0=Outside
TTITLE1=Fastlove
TTITLE2=Too Funky
TTITLE3=Freedom 90
TTITLE4=Star People 97
TTITLE5=Killer, Papa Was A Rollin' Stone
TTITLE6=I Want Your Sex (Part II)
TTITLE7=Monkey
TTITLE8=Spinning The Wheel
TTITLE9=Waiting For That Day, You Can't Always Get What You Want
TTITLE10=I Knew You Were Waiting (For Me) (With Aretha Franklin)
TTITLE11=Hard Day
TTITLE12=Faith
TTITLE13=Somebody To Love (With Queen)
EXTD=YEAR: 1998
EXTT0=
EXTT1=
EXTT2=
EXTT3=
EXTT4=
EXTT5=
EXTT6=
EXTT7=
EXTT8=
EXTT9=
EXTT10=
EXTT11=
EXTT12=
EXTT13=
PLAYORDER=
